<mxfile host="app.diagrams.net" modified="2024-03-28T15:56:22.787Z" agent="Mozilla/5.0 (Windows NT 10.0; Win64; x64) AppleWebKit/537.36 (KHTML, like Gecko) Chrome/121.0.0.0 Safari/537.36 OPR/107.0.0.0" version="24.2.1" etag="EFt28LVtT-YrZylDmQm6" type="github">
  <diagram name="Сторінка-1" id="kLLWLdcUzuOPnICuXae0">
    <mxGraphModel>
      <root>
        <mxCell id="0" />
        <mxCell id="1" parent="0" />
      </root>
    </mxGraphModel>
  </diagram>
</mxfile>
